<?xml version="1.0" standalone="no"?>
<!DOCTYPE svg PUBLIC "-//W3C//DTD SVG 20010904//EN"
 "http://www.w3.org/TR/2001/REC-SVG-20010904/DTD/svg10.dtd">
<svg version="1.0" xmlns="http://www.w3.org/2000/svg"
 width="170.000000pt" height="170.000000pt" viewBox="0 0 170.000000 170.000000"
 preserveAspectRatio="xMidYMid meet">
<metadata>
Created by potrace 1.14, written by Peter Selinger 2001-2017
</metadata>
<g transform="translate(0.000000,170.000000) scale(0.100000,-0.100000)"
fill="#000000" stroke="none">
<path d="M80 995 c0 -45 0 -45 35 -45 l35 0 0 -125 0 -125 45 0 45 0 0 125 0
125 35 0 c35 0 35 0 35 45 l0 45 -115 0 -115 0 0 -45z"/>
<path d="M450 870 l0 -170 45 0 45 0 0 97 c0 53 3 93 6 90 4 -3 19 -41 34 -84
l28 -78 43 -3 44 -3 32 88 32 88 0 -97 1 -98 45 0 45 0 0 170 0 171 -61 -3
-61 -3 -39 -100 c-28 -73 -40 -95 -44 -80 -4 11 -21 56 -38 100 l-32 80 -62 3
-63 3 0 -171z"/>
<path d="M1017 1033 c-4 -3 -7 -80 -7 -170 l0 -163 50 0 50 0 0 68 1 67 42
-67 42 -67 57 -1 57 0 -59 87 -59 87 55 77 c30 42 54 80 54 83 0 3 -22 6 -49
6 l-49 0 -43 -67 -44 -67 -3 67 -3 67 -43 0 c-23 0 -46 -3 -49 -7z"/>
<path d="M1455 1028 c-16 -6 -32 -12 -33 -14 -10 -7 21 -74 34 -74 11 0 14
-23 14 -120 l0 -120 50 0 50 0 -2 168 -3 167 -40 2 c-22 1 -53 -3 -70 -9z"/>
</g>
</svg>
