<?xml version="1.0" standalone="no"?>
<!DOCTYPE svg PUBLIC "-//W3C//DTD SVG 20010904//EN"
 "http://www.w3.org/TR/2001/REC-SVG-20010904/DTD/svg10.dtd">
<svg version="1.0" xmlns="http://www.w3.org/2000/svg"
 width="144.000000pt" height="144.000000pt" viewBox="0 0 144.000000 144.000000"
 preserveAspectRatio="xMidYMid meet">
<metadata>
Created by potrace 1.14, written by Peter Selinger 2001-2017
</metadata>
<g transform="translate(0.000000,144.000000) scale(0.100000,-0.100000)"
fill="#000000" stroke="none">
<path d="M0 720 l0 -720 720 0 720 0 0 720 0 720 -720 0 -720 0 0 -720z m410
160 c0 -30 -1 -30 -55 -30 l-54 0 -3 -137 -3 -138 -32 -3 -33 -3 0 140 0 141
-55 0 c-54 0 -55 0 -55 30 l0 30 145 0 145 0 0 -30z m180 -51 l51 -82 51 82
c49 79 51 81 89 81 l39 0 0 -170 0 -170 -30 0 -29 0 -3 117 -3 117 -53 -87
c-30 -48 -57 -87 -62 -87 -4 0 -29 36 -56 80 -27 44 -51 80 -54 80 -3 0 -5
-48 -5 -107 l0 -108 -32 -3 -33 -3 0 170 0 171 39 0 c38 0 40 -2 91 -81z m352
-34 l3 -115 70 115 c69 114 70 115 107 115 21 0 38 -2 38 -4 0 -3 -23 -41 -50
-86 l-51 -81 39 -62 c69 -110 69 -107 24 -107 -35 0 -40 4 -67 50 -17 27 -32
50 -35 50 -3 0 -19 -22 -35 -50 -28 -48 -31 -50 -72 -50 l-43 0 0 170 0 170
35 0 34 0 3 -115z m358 -55 l0 -170 -35 0 -35 0 0 140 c0 87 -4 140 -10 140
-5 0 -10 14 -10 30 0 29 2 30 45 30 l45 0 0 -170z"/>
</g>
</svg>
